<svg width="16" height="18" viewBox="0 0 16 18" fill="none" xmlns="http://www.w3.org/2000/svg">
<path d="M15.281 8.03073C15.2114 8.10046 15.1287 8.15578 15.0376 8.19352C14.9466 8.23127 14.849 8.25069 14.7504 8.25069C14.6519 8.25069 14.5543 8.23127 14.4632 8.19352C14.3722 8.15578 14.2894 8.10046 14.2198 8.03073L8.75042 2.56041V17.2501C8.75042 17.449 8.6714 17.6398 8.53075 17.7804C8.39009 17.9211 8.19933 18.0001 8.00042 18.0001C7.8015 18.0001 7.61074 17.9211 7.47009 17.7804C7.32943 17.6398 7.25042 17.449 7.25042 17.2501V2.56041L1.78104 8.03073C1.64031 8.17146 1.44944 8.25052 1.25042 8.25052C1.05139 8.25052 0.860522 8.17146 0.719792 8.03073C0.579062 7.89 0.5 7.69912 0.5 7.5001C0.5 7.30108 0.579062 7.11021 0.719792 6.96948L7.46979 0.219477C7.53945 0.149744 7.62216 0.0944251 7.71321 0.0566819C7.80426 0.0189387 7.90185 -0.000488281 8.00042 -0.000488281C8.09898 -0.000488281 8.19657 0.0189387 8.28762 0.0566819C8.37867 0.0944251 8.46139 0.149744 8.53104 0.219477L15.281 6.96948C15.3508 7.03913 15.4061 7.12185 15.4438 7.2129C15.4816 7.30395 15.501 7.40154 15.501 7.5001C15.501 7.59866 15.4816 7.69626 15.4438 7.78731C15.4061 7.87836 15.3508 7.96107 15.281 8.03073Z" fill="white"/>
</svg>
