<svg width="40" height="39" viewBox="0 0 40 39" fill="none" xmlns="http://www.w3.org/2000/svg">
<path fill-rule="evenodd" clip-rule="evenodd" d="M16.3209 0.269834C12.4867 1.02224 9.35666 2.70901 6.47587 5.5754C4.56718 7.47466 4.0429 8.18189 3.0641 10.1777C1.03601 14.3128 1.07473 13.9981 0.971714 27.2574L0.880859 39L12.6254 38.9134C25.8046 38.8161 25.6152 38.8381 29.4589 36.9337C31.1767 36.0825 32.0095 35.4482 33.9396 33.5209C35.8909 31.5725 36.4932 30.7804 37.3439 29.0437C38.9016 25.8628 39.1848 24.5407 39.3238 19.7969L39.4457 15.6389H29.2312C18.0328 15.6389 17.9586 15.6476 16.7251 17.1137C16.0747 17.8867 16.0541 18.0059 16.0541 20.9951V24.079H23.253C27.2123 24.079 30.4508 24.1629 30.4496 24.2652C30.4481 24.3674 30.1254 25.0121 29.7324 25.6975C28.2971 28.1995 25.6417 30.0315 22.7289 30.5294C21.7899 30.69 18.7125 30.7712 15.1853 30.729L9.22758 30.6573L9.15509 25.0719C9.07144 18.6202 9.31694 16.2079 10.2615 14.2059C11.5866 11.3961 14.7114 9.00876 17.8106 8.43757C18.5854 8.29483 21.8092 8.21193 25.1336 8.24916L31.0724 8.31594L31.2152 12.9083H39.3884V0L28.4039 0.0273062C22.3623 0.0422004 16.9252 0.151425 16.3209 0.269834Z" fill="#0141E9"/>
</svg>
