<svg width="89" height="45" viewBox="0 0 89 45" fill="none" xmlns="http://www.w3.org/2000/svg">
<g clip-path="url(#clip0_4702_19884)">
<path fill-rule="evenodd" clip-rule="evenodd" d="M38.3803 19.3856C32.918 19.3856 28.5578 23.8143 28.5578 29.1929C28.5578 34.5715 32.918 39.0002 38.3803 39.0002C43.8426 39.0002 48.2028 34.5715 48.2028 29.1929C48.2028 23.8143 43.8426 19.3856 38.3803 19.3856ZM22.6543 29.1929C22.6543 20.4258 29.7326 13.3872 38.3803 13.3872C47.028 13.3872 54.1063 20.4258 54.1063 29.1929C54.1063 37.96 47.028 44.9986 38.3803 44.9986C29.7326 44.9986 22.6543 37.96 22.6543 29.1929Z" fill="#1F1F1F"/>
<path d="M49.9486 39.9014C52.9165 43.116 56.2546 44.9714 60.8915 44.9714C64.2672 44.9714 67.1035 44.0171 69.3214 42.118C71.6881 40.0977 72.9439 37.3589 72.9439 34.1948C72.9439 30.9815 71.5607 28.2509 69.002 26.3192L69.3737 25.8025L71.8518 22.3603L73.6322 19.8859L71.5164 17.7047C68.7739 14.8759 66.5038 13.3968 61.9783 13.4418H61.4148C53.3243 13.4418 50.8583 19.5656 50.8583 19.5656C50.7818 20.3958 45.5412 34.7769 49.9527 39.9027C54.6311 45.3367 60.6138 44.9795 61.3906 44.9795L82.6377 44.9727C83.405 44.9724 84.1408 44.6624 84.6832 44.111C85.2257 43.5595 85.5304 42.8118 85.5304 42.0322V16.381C85.5304 15.9946 85.4554 15.612 85.3098 15.255C85.1642 14.8981 84.9508 14.5738 84.6818 14.3007C84.4128 14.0276 84.0934 13.8111 83.742 13.6635C83.3905 13.5159 83.0139 13.4401 82.6337 13.4404H62.0775M53.3203 16.3033C52.3194 17.3203 51.4258 18.3482 50.8543 19.5615L53.3203 16.3033ZM26.1067 19.4251V17.004C26.1067 15.2031 25.2198 14.302 24.333 13.8521C23.7792 13.5775 23.175 13.4238 22.5593 13.4009H17.917C16.1728 13.4009 15.2806 14.302 14.8311 15.2031C14.5594 15.7654 14.4041 16.3783 14.3749 17.004V23.2137H11.7371V17.004C11.7371 15.2031 10.8503 14.302 9.96343 13.8521C9.40968 13.5775 8.80547 13.4238 8.18971 13.4009H3.54744C2.10914 13.4009 1.22228 13.7826 0.694998 14.4233C0.167712 15.0641 0 15.9638 0 17.004V41.3805C0 43.1828 0.88686 44.0839 1.77372 44.5338C2.32747 44.8083 2.93168 44.9621 3.54744 44.985H8.18971C10.0319 44.985 10.9174 44.0839 11.344 43.1828C11.6033 42.6185 11.7374 42.0033 11.7371 41.3805V34.98H14.3749V41.3805C14.3749 43.1828 15.2618 44.0839 16.1486 44.5338C16.7024 44.8083 17.3066 44.9621 17.9224 44.985H22.5593C24.333 44.985 25.2198 44.0839 25.6626 43.1828C25.9328 42.6201 26.0841 42.0062 26.1067 41.3805" fill="#1F1F1F"/>
<path d="M74.8423 16.5639C75.0838 15.326 77.1231 12.6963 82.0794 12.3868C87.2342 12.0651 89.1903 10.3256 88.9864 8.38973C88.6953 5.63866 82.5852 5.07291 82.5463 5.01838C82.2484 5.05791 84.0449 2.97348 82.7408 1.19306C81.0932 -1.05769 77.9107 0.444626 76.7542 1.11399C72.3709 3.64966 74.0708 6.05173 74.0708 6.05173C74.0708 6.05173 73.0498 8.26022 71.7188 8.09663C67.3918 7.56632 70.475 -0.0516023 65.1579 0.489614C61.0564 0.908136 58.9995 11.2212 63.2983 13.0112C67.9433 14.9457 68.5658 16.5489 68.5658 16.5489L74.8423 16.5639Z" fill="#1F1F1F"/>
<mask id="mask0_4702_19884" style="mask-type:luminance" maskUnits="userSpaceOnUse" x="64" y="3" width="22" height="11">
<path d="M65.4467 3.93051C65.4037 4.01639 62.3742 9.09728 66.457 10.8204C69.4865 12.0992 68.9632 13.4502 68.9632 13.4502H73.4901C72.0585 12.8681 75.1082 10.6323 78.3967 9.66576C82.5439 8.43882 85.2541 8.61196 85.2541 8.61196C80.64 8.3284 78.0385 6.11991 77.3542 7.09192C74.7902 10.7264 72.9696 11.528 71.4051 11.4544C65.9793 11.1817 65.5621 4.15272 65.4467 3.9346M77.3542 7.09192L77.4065 7.01148C79.2205 4.28496 79.7773 3.60332 79.8726 3.50244C79.5023 3.66331 75.2263 5.65231 77.3542 7.09192ZM79.7384 3.63877L79.7652 3.6265V3.61832C79.7652 3.61832 79.7545 3.61832 79.7397 3.63877" fill="white"/>
</mask>
<g mask="url(#mask0_4702_19884)">
<path d="M85.2529 3.4834H63.2974V13.8592H85.2529V3.4834Z" fill="url(#paint0_linear_4702_19884)"/>
</g>
<path d="M77.1219 30.6202C77.1138 30.9619 77.1747 31.3016 77.3009 31.6184C77.4272 31.9352 77.616 32.2223 77.8558 32.462C78.0866 32.7058 78.3644 32.8985 78.672 33.028C78.9795 33.1575 79.3101 33.221 79.6429 33.2145C80.1459 33.2094 80.6362 33.0538 81.0527 32.7672C81.4692 32.4807 81.7933 32.0758 81.9847 31.6031C82.176 31.1305 82.2261 30.6111 82.1287 30.1097C82.0312 29.6083 81.7906 29.1472 81.4368 28.7839C81.201 28.5416 80.9192 28.3505 80.6086 28.222C80.2979 28.0936 79.9648 28.0306 79.6295 28.0368C79.2968 28.029 78.966 28.0906 78.6577 28.218C78.3493 28.3453 78.07 28.5356 77.837 28.7771C77.5998 29.0183 77.4135 29.3062 77.2896 29.6231C77.1657 29.94 77.1068 30.2793 77.1165 30.6202M79.7691 25.0922H81.1913V25.9456C81.1975 26.0409 81.184 26.1365 81.1516 26.2262C81.1192 26.3159 81.0685 26.3976 81.003 26.4661C80.9375 26.5347 80.8585 26.5884 80.7712 26.6239C80.6839 26.6594 80.5902 26.6759 80.4963 26.6722C80.0938 26.6722 79.7811 26.3996 79.7811 25.8924L79.7691 25.0922ZM77.1957 38.5885V39.596H81.1403V41.0151H82.0862V37.1693H81.1403V38.5885H77.1957ZM77.1165 35.0849C77.0945 35.5609 77.2422 36.029 77.5325 36.4032C77.6617 36.5648 77.8256 36.6941 78.0117 36.7813C78.1977 36.8685 78.401 36.9112 78.6058 36.9062C79.1425 36.9062 79.5531 36.624 79.8241 36.0597C79.8831 35.9315 79.969 35.7297 80.0817 35.4544L80.2937 34.9636C80.4278 34.6909 80.5848 34.5546 80.7767 34.5546C81.0611 34.5546 81.2463 34.7973 81.2463 35.194C81.2401 35.6041 81.0764 35.9954 80.7901 36.2846L81.5052 36.8149C81.7208 36.6035 81.8909 36.349 82.0047 36.0674C82.1186 35.7858 82.1737 35.4833 82.1667 35.179C82.1842 34.7324 82.0378 34.2952 81.7561 33.952C81.6321 33.8009 81.4761 33.6801 81.2998 33.5987C81.1235 33.5173 80.9314 33.4773 80.7378 33.4817C80.2212 33.4817 79.8174 33.7435 79.5195 34.2683C79.4183 34.4575 79.3287 34.6528 79.2512 34.8532C79.1519 35.1149 79.0915 35.2771 79.0593 35.3439C78.9251 35.6466 78.748 35.7952 78.5495 35.7952C78.2382 35.7952 78.0262 35.4925 78.0262 35.0822C78.0272 34.823 78.0896 34.5678 78.2083 34.3383C78.3269 34.1089 78.4983 33.9118 78.7078 33.7639L78.0262 33.1927C77.7341 33.4067 77.4982 33.6903 77.3391 34.0185C77.1801 34.3468 77.1027 34.7097 77.1138 35.0754M79.6349 32.1703C79.3301 32.1731 79.0314 32.084 78.7765 31.9143C78.5216 31.7446 78.322 31.5019 78.2029 31.2168C78.0838 30.9318 78.0506 30.6172 78.1075 30.313C78.1644 30.0088 78.3089 29.7286 78.5226 29.5078C78.8256 29.2209 79.2247 29.0619 79.6389 29.0632C80.0531 29.0645 80.4512 29.2259 80.7525 29.5146C80.8954 29.6591 81.0087 29.8309 81.086 30.0201C81.1634 30.2092 81.2032 30.412 81.2032 30.6168C81.2032 30.8216 81.1634 31.0244 81.086 31.2136C81.0087 31.4027 80.8954 31.5745 80.7525 31.719C80.6066 31.868 80.4321 31.9849 80.2398 32.0625C80.0476 32.1401 79.8417 32.1768 79.6349 32.1703ZM82.0835 24.0875H77.2011V25.0826H78.8889V25.8488C78.8889 26.4609 79.0405 26.919 79.3384 27.2216C79.488 27.3716 79.6659 27.4894 79.8614 27.5679C80.0569 27.6463 80.266 27.6839 80.4761 27.6783C80.9007 27.6887 81.3122 27.5291 81.622 27.2339C81.9332 26.9449 82.0915 26.5086 82.0915 25.9238L82.0835 24.0875ZM82.533 22.776C82.5346 22.704 82.5221 22.6325 82.4964 22.5654C82.4706 22.4984 82.4321 22.4372 82.3829 22.3854C82.3338 22.3335 82.275 22.2921 82.2101 22.2634C82.1451 22.2348 82.0752 22.2195 82.0043 22.2184C81.8788 22.2176 81.7577 22.266 81.6665 22.3536C81.5753 22.4413 81.5208 22.5613 81.5146 22.6888C81.2992 22.5251 81.1131 22.3249 80.9645 22.0971L80.5942 22.3588C81.0115 23.0255 81.4475 23.354 81.905 23.354C81.9841 23.3592 82.0634 23.348 82.1381 23.321C82.2127 23.2941 82.2812 23.252 82.3393 23.1972C82.3975 23.1425 82.444 23.0763 82.4761 23.0027C82.5083 22.9292 82.5253 22.8497 82.5263 22.7692M79.0674 20.3385L82.0915 17.7156V17.083H77.2011V18.0659H80.1984L77.2011 20.6384V21.32H82.0915V20.3385H79.0674Z" fill="url(#paint1_linear_4702_19884)"/>
<path d="M22.711 17.0488V41.4254H18.0688V31.4204H8.34148V41.4254H3.69922V17.0488H8.34148V26.8616H18.0688V17.0488H22.711Z" fill="white"/>
<path d="M73.0444 22.2308L61.2817 17.0845H75.1079V19.1048L70.3194 19.0571L75.1079 21.0925V41.0166H73.0524H69.3453L73.0444 39.2471V22.2308Z" fill="white"/>
<path d="M67.8887 21.984L66.6651 23.7058C65.3784 22.303 63.3108 21.5055 61.5827 21.5055C59.7312 21.5055 58.6015 22.3984 58.6015 23.7699C58.6015 24.6942 59.2294 25.459 60.4798 26.097L62.7701 27.1167C64.0563 27.662 64.9955 28.0764 65.5877 28.36C68.2228 29.6674 69.5403 31.6114 69.5403 34.222C69.5403 36.326 68.7559 38.0473 67.187 39.3861C65.6185 40.7248 63.5792 41.3942 61.038 41.3942C57.4302 41.3942 54.1672 39.8319 52.2539 36.9949L54.9199 33.7108C56.4373 35.8511 58.6954 36.9976 61.0796 36.9976C62.9942 36.9976 64.4056 35.9779 64.4056 34.4797C64.4056 33.5254 63.716 32.6938 62.3032 32.0258C61.9906 31.8663 61.2298 31.58 60.0129 31.1015C59.0784 30.7339 58.167 30.3082 57.2839 29.8269C54.8367 28.3913 53.613 26.4473 53.613 23.9648C53.613 21.9881 54.3349 20.3617 55.8094 19.0571C56.4767 18.4656 57.2422 17.9993 58.0702 17.6802L67.8887 21.984Z" fill="white"/>
<path fill-rule="evenodd" clip-rule="evenodd" d="M38.6245 21.6064C34.566 21.6064 31.276 24.9493 31.276 29.073C31.276 33.1967 34.566 36.5396 38.6245 36.5396C42.6829 36.5396 45.9729 33.1967 45.9729 29.073C45.9729 24.9493 42.6829 21.6064 38.6245 21.6064ZM26.5801 29.073C26.5801 22.3141 31.9725 16.835 38.6245 16.835C45.2764 16.835 50.6689 22.3141 50.6689 29.073C50.6689 35.8319 45.2764 41.311 38.6245 41.311C31.9725 41.311 26.5801 35.8319 26.5801 29.073Z" fill="white"/>
<path fill-rule="evenodd" clip-rule="evenodd" d="M38.6245 25.008C36.3563 25.008 34.5176 26.8763 34.5176 29.1809C34.5176 31.4856 36.3563 33.3539 38.6245 33.3539C40.8927 33.3539 42.7315 31.4856 42.7315 29.1809C42.7315 26.8763 40.8927 25.008 38.6245 25.008ZM30.895 29.1809C30.895 24.8434 34.3556 21.3271 38.6245 21.3271C42.8934 21.3271 46.354 24.8434 46.354 29.1809C46.354 33.5184 42.8934 37.0347 38.6245 37.0347C34.3556 37.0347 30.895 33.5184 30.895 29.1809Z" fill="#1F1F1F"/>
</g>
<defs>
<linearGradient id="paint0_linear_4702_19884" x1="81.2277" y1="6.0053" x2="64.6415" y2="6.56254" gradientUnits="userSpaceOnUse">
<stop stop-color="#8054EE"/>
<stop offset="0.990854" stop-color="#F07FD0"/>
</linearGradient>
<linearGradient id="paint1_linear_4702_19884" x1="81.5394" y1="22.8998" x2="77.4401" y2="22.9146" gradientUnits="userSpaceOnUse">
<stop stop-color="#8054EE"/>
<stop offset="0.990854" stop-color="#F07FD0"/>
</linearGradient>
<clipPath id="clip0_4702_19884">
<rect width="89" height="45" fill="white"/>
</clipPath>
</defs>
</svg>
